<svg width="190" height="43" viewBox="0 0 190 43" fill="none" xmlns="http://www.w3.org/2000/svg">
<path d="M46.324 35.544H46.348L49.312 27.432H49.84L46.636 36H46.024L42.832 27.432H43.384L46.324 35.544ZM52.037 28.668V27.432H52.493V28.668H52.037ZM52.037 36V29.832H52.493V36H52.037ZM55.9607 33.948C55.9767 34.236 56.0407 34.492 56.1527 34.716C56.2647 34.932 56.4087 35.12 56.5847 35.28C56.7687 35.432 56.9807 35.548 57.2207 35.628C57.4607 35.708 57.7207 35.748 58.0007 35.748C58.2007 35.748 58.4127 35.732 58.6367 35.7C58.8687 35.66 59.0807 35.592 59.2727 35.496C59.4727 35.4 59.6367 35.268 59.7647 35.1C59.8927 34.924 59.9567 34.704 59.9567 34.44C59.9567 34.096 59.8527 33.836 59.6447 33.66C59.4367 33.484 59.1727 33.348 58.8527 33.252C58.5407 33.156 58.2007 33.08 57.8327 33.024C57.4727 32.96 57.1327 32.868 56.8127 32.748C56.5007 32.628 56.2407 32.46 56.0327 32.244C55.8247 32.02 55.7207 31.696 55.7207 31.272C55.7207 30.968 55.7887 30.716 55.9247 30.516C56.0607 30.308 56.2327 30.144 56.4407 30.024C56.6567 29.904 56.8967 29.82 57.1607 29.772C57.4247 29.716 57.6887 29.688 57.9527 29.688C58.2727 29.688 58.5727 29.724 58.8527 29.796C59.1327 29.868 59.3727 29.984 59.5727 30.144C59.7807 30.304 59.9407 30.508 60.0527 30.756C60.1727 31.004 60.2327 31.304 60.2327 31.656H59.7767C59.7767 31.376 59.7287 31.136 59.6327 30.936C59.5447 30.736 59.4167 30.576 59.2487 30.456C59.0887 30.328 58.8967 30.236 58.6727 30.18C58.4487 30.116 58.2087 30.084 57.9527 30.084C57.7447 30.084 57.5327 30.104 57.3167 30.144C57.1087 30.184 56.9207 30.252 56.7527 30.348C56.5847 30.444 56.4447 30.568 56.3327 30.72C56.2287 30.872 56.1767 31.056 56.1767 31.272C56.1767 31.52 56.2367 31.72 56.3567 31.872C56.4767 32.024 56.6327 32.148 56.8247 32.244C57.0247 32.332 57.2447 32.404 57.4847 32.46C57.7327 32.516 57.9807 32.572 58.2287 32.628C58.5327 32.684 58.8167 32.752 59.0807 32.832C59.3527 32.904 59.5847 33.008 59.7767 33.144C59.9767 33.272 60.1327 33.44 60.2447 33.648C60.3567 33.856 60.4127 34.12 60.4127 34.44C60.4127 34.776 60.3367 35.052 60.1847 35.268C60.0327 35.484 59.8407 35.66 59.6087 35.796C59.3767 35.924 59.1167 36.012 58.8287 36.06C58.5487 36.116 58.2727 36.144 58.0007 36.144C57.6487 36.144 57.3207 36.096 57.0167 36C56.7207 35.912 56.4607 35.776 56.2367 35.592C56.0127 35.4 55.8367 35.168 55.7087 34.896C55.5807 34.624 55.5127 34.308 55.5047 33.948H55.9607ZM68.206 36H67.75V34.68H67.726C67.646 34.912 67.53 35.12 67.378 35.304C67.234 35.48 67.062 35.632 66.862 35.76C66.67 35.888 66.458 35.984 66.226 36.048C65.994 36.112 65.758 36.144 65.518 36.144C65.158 36.144 64.85 36.1 64.594 36.012C64.346 35.924 64.142 35.808 63.982 35.664C63.822 35.52 63.694 35.36 63.598 35.184C63.51 35 63.446 34.816 63.406 34.632C63.366 34.448 63.342 34.272 63.334 34.104C63.326 33.928 63.322 33.776 63.322 33.648V29.832H63.778V33.732C63.778 33.892 63.79 34.088 63.814 34.32C63.838 34.544 63.906 34.764 64.018 34.98C64.138 35.188 64.314 35.368 64.546 35.52C64.778 35.672 65.106 35.748 65.53 35.748C65.874 35.748 66.182 35.684 66.454 35.556C66.734 35.428 66.97 35.252 67.162 35.028C67.354 34.796 67.498 34.524 67.594 34.212C67.698 33.892 67.75 33.544 67.75 33.168V29.832H68.206V36ZM75.4367 34.776H75.4127C75.3407 34.96 75.2367 35.136 75.1007 35.304C74.9647 35.464 74.7967 35.608 74.5967 35.736C74.4047 35.864 74.1847 35.964 73.9367 36.036C73.6887 36.108 73.4167 36.144 73.1207 36.144C72.4647 36.144 71.9567 36.004 71.5967 35.724C71.2367 35.436 71.0567 34.996 71.0567 34.404C71.0567 34.044 71.1287 33.752 71.2727 33.528C71.4167 33.296 71.5967 33.116 71.8127 32.988C72.0367 32.852 72.2807 32.756 72.5447 32.7C72.8167 32.644 73.0767 32.604 73.3247 32.58L74.0327 32.52C74.3607 32.496 74.6167 32.46 74.8007 32.412C74.9927 32.356 75.1367 32.284 75.2327 32.196C75.3287 32.1 75.3887 31.98 75.4127 31.836C75.4367 31.692 75.4487 31.512 75.4487 31.296C75.4487 31.128 75.4167 30.972 75.3527 30.828C75.2887 30.684 75.1887 30.556 75.0527 30.444C74.9167 30.332 74.7407 30.244 74.5247 30.18C74.3087 30.116 74.0447 30.084 73.7327 30.084C73.1807 30.084 72.7327 30.22 72.3887 30.492C72.0527 30.764 71.8687 31.176 71.8367 31.728H71.3807C71.4127 31.048 71.6287 30.54 72.0287 30.204C72.4367 29.86 73.0127 29.688 73.7567 29.688C74.5007 29.688 75.0407 29.836 75.3767 30.132C75.7207 30.42 75.8927 30.8 75.8927 31.272V34.86C75.8927 34.948 75.8927 35.036 75.8927 35.124C75.9007 35.212 75.9167 35.292 75.9407 35.364C75.9647 35.436 76.0047 35.496 76.0607 35.544C76.1167 35.584 76.1967 35.604 76.3007 35.604C76.3807 35.604 76.4927 35.592 76.6367 35.568V35.952C76.5167 35.984 76.3927 36 76.2647 36C76.0807 36 75.9327 35.976 75.8207 35.928C75.7167 35.88 75.6367 35.816 75.5807 35.736C75.5247 35.656 75.4847 35.564 75.4607 35.46C75.4447 35.348 75.4367 35.228 75.4367 35.1V34.776ZM75.4367 32.496C75.3247 32.632 75.1527 32.724 74.9207 32.772C74.6967 32.82 74.4447 32.856 74.1647 32.88L73.3967 32.952C73.1727 32.976 72.9487 33.012 72.7247 33.06C72.5007 33.1 72.2967 33.172 72.1127 33.276C71.9367 33.38 71.7927 33.524 71.6807 33.708C71.5687 33.884 71.5127 34.116 71.5127 34.404C71.5127 34.86 71.6567 35.2 71.9447 35.424C72.2327 35.64 72.6287 35.748 73.1327 35.748C73.6527 35.748 74.0647 35.656 74.3687 35.472C74.6727 35.28 74.9047 35.064 75.0647 34.824C75.2247 34.576 75.3247 34.34 75.3647 34.116C75.4127 33.884 75.4367 33.728 75.4367 33.648V32.496ZM79.7087 27.432V36H79.2527V27.432H79.7087ZM83.0683 28.668V27.432H83.5243V28.668H83.0683ZM83.0683 36V29.832H83.5243V36H83.0683ZM91.1079 35.604V36H86.2119V35.568L90.3519 30.228H86.5359V29.832H90.9159V30.264L86.7639 35.604H91.1079ZM97.7773 34.776H97.7533C97.6813 34.96 97.5773 35.136 97.4413 35.304C97.3053 35.464 97.1373 35.608 96.9373 35.736C96.7453 35.864 96.5253 35.964 96.2773 36.036C96.0293 36.108 95.7573 36.144 95.4613 36.144C94.8053 36.144 94.2973 36.004 93.9373 35.724C93.5773 35.436 93.3973 34.996 93.3973 34.404C93.3973 34.044 93.4693 33.752 93.6133 33.528C93.7573 33.296 93.9373 33.116 94.1533 32.988C94.3773 32.852 94.6213 32.756 94.8853 32.7C95.1573 32.644 95.4173 32.604 95.6653 32.58L96.3733 32.52C96.7013 32.496 96.9573 32.46 97.1413 32.412C97.3333 32.356 97.4773 32.284 97.5733 32.196C97.6693 32.1 97.7293 31.98 97.7533 31.836C97.7773 31.692 97.7893 31.512 97.7893 31.296C97.7893 31.128 97.7573 30.972 97.6933 30.828C97.6293 30.684 97.5293 30.556 97.3933 30.444C97.2573 30.332 97.0813 30.244 96.8653 30.18C96.6493 30.116 96.3853 30.084 96.0733 30.084C95.5213 30.084 95.0733 30.22 94.7293 30.492C94.3933 30.764 94.2093 31.176 94.1773 31.728H93.7213C93.7533 31.048 93.9693 30.54 94.3693 30.204C94.7773 29.86 95.3533 29.688 96.0973 29.688C96.8413 29.688 97.3813 29.836 97.7173 30.132C98.0613 30.42 98.2333 30.8 98.2333 31.272V34.86C98.2333 34.948 98.2333 35.036 98.2333 35.124C98.2413 35.212 98.2573 35.292 98.2813 35.364C98.3053 35.436 98.3453 35.496 98.4013 35.544C98.4573 35.584 98.5373 35.604 98.6413 35.604C98.7213 35.604 98.8333 35.592 98.9773 35.568V35.952C98.8573 35.984 98.7333 36 98.6053 36C98.4213 36 98.2733 35.976 98.1613 35.928C98.0573 35.88 97.9773 35.816 97.9213 35.736C97.8653 35.656 97.8253 35.564 97.8013 35.46C97.7853 35.348 97.7773 35.228 97.7773 35.1V34.776ZM97.7773 32.496C97.6653 32.632 97.4933 32.724 97.2613 32.772C97.0373 32.82 96.7853 32.856 96.5053 32.88L95.7373 32.952C95.5133 32.976 95.2893 33.012 95.0653 33.06C94.8413 33.1 94.6373 33.172 94.4533 33.276C94.2773 33.38 94.1333 33.524 94.0213 33.708C93.9093 33.884 93.8533 34.116 93.8533 34.404C93.8533 34.86 93.9973 35.2 94.2853 35.424C94.5733 35.64 94.9693 35.748 95.4733 35.748C95.9933 35.748 96.4053 35.656 96.7093 35.472C97.0133 35.28 97.2453 35.064 97.4053 34.824C97.5653 34.576 97.6653 34.34 97.7053 34.116C97.7533 33.884 97.7773 33.728 97.7773 33.648V32.496ZM103.753 30.228H102.409V34.536C102.409 34.784 102.437 34.98 102.493 35.124C102.549 35.268 102.633 35.38 102.745 35.46C102.865 35.532 103.005 35.576 103.165 35.592C103.333 35.608 103.525 35.612 103.741 35.604V36C103.509 36.016 103.281 36.016 103.057 36C102.841 35.976 102.649 35.916 102.481 35.82C102.313 35.716 102.177 35.564 102.073 35.364C101.977 35.164 101.937 34.888 101.953 34.536V30.228H100.813V29.832H101.953V27.912H102.409V29.832H103.753V30.228ZM106.499 28.668V27.432H106.955V28.668H106.499ZM106.499 36V29.832H106.955V36H106.499ZM109.918 32.916C109.918 32.476 109.978 32.064 110.098 31.68C110.226 31.288 110.41 30.944 110.65 30.648C110.89 30.352 111.186 30.12 111.538 29.952C111.89 29.776 112.294 29.688 112.75 29.688C113.206 29.688 113.61 29.776 113.962 29.952C114.314 30.12 114.61 30.352 114.85 30.648C115.09 30.944 115.27 31.288 115.39 31.68C115.518 32.064 115.582 32.476 115.582 32.916C115.582 33.356 115.518 33.772 115.39 34.164C115.27 34.556 115.09 34.9 114.85 35.196C114.61 35.484 114.314 35.716 113.962 35.892C113.61 36.06 113.206 36.144 112.75 36.144C112.294 36.144 111.89 36.06 111.538 35.892C111.186 35.716 110.89 35.484 110.65 35.196C110.41 34.9 110.226 34.556 110.098 34.164C109.978 33.772 109.918 33.356 109.918 32.916ZM110.374 32.916C110.374 33.284 110.426 33.64 110.53 33.984C110.634 34.32 110.786 34.62 110.986 34.884C111.186 35.148 111.434 35.36 111.73 35.52C112.026 35.672 112.366 35.748 112.75 35.748C113.134 35.748 113.474 35.672 113.77 35.52C114.066 35.36 114.314 35.148 114.514 34.884C114.714 34.62 114.866 34.32 114.97 33.984C115.074 33.64 115.126 33.284 115.126 32.916C115.126 32.548 115.074 32.196 114.97 31.86C114.866 31.516 114.714 31.212 114.514 30.948C114.314 30.684 114.066 30.476 113.77 30.324C113.474 30.164 113.134 30.084 112.75 30.084C112.366 30.084 112.026 30.164 111.73 30.324C111.434 30.476 111.186 30.684 110.986 30.948C110.786 31.212 110.634 31.516 110.53 31.86C110.426 32.196 110.374 32.548 110.374 32.916ZM118.452 29.832H118.908V31.152H118.932C119.012 30.92 119.124 30.716 119.268 30.54C119.42 30.356 119.592 30.2 119.784 30.072C119.984 29.944 120.2 29.848 120.432 29.784C120.664 29.72 120.9 29.688 121.14 29.688C121.5 29.688 121.804 29.732 122.052 29.82C122.308 29.908 122.516 30.024 122.676 30.168C122.836 30.312 122.96 30.476 123.048 30.66C123.144 30.836 123.212 31.016 123.252 31.2C123.292 31.384 123.316 31.564 123.324 31.74C123.332 31.908 123.336 32.056 123.336 32.184V36H122.88V32.1C122.88 31.948 122.868 31.756 122.844 31.524C122.82 31.292 122.748 31.072 122.628 30.864C122.516 30.648 122.34 30.464 122.1 30.312C121.868 30.16 121.544 30.084 121.128 30.084C120.776 30.084 120.464 30.148 120.192 30.276C119.92 30.404 119.688 30.584 119.496 30.816C119.304 31.04 119.156 31.312 119.052 31.632C118.956 31.944 118.908 32.288 118.908 32.664V36H118.452V29.832ZM131.698 27.432H137.458V27.888H132.226V31.32H137.146V31.776H132.226V35.544H137.518V36H131.698V27.432ZM140.129 29.832H140.585V31.152H140.609C140.689 30.92 140.801 30.716 140.945 30.54C141.097 30.356 141.269 30.2 141.461 30.072C141.661 29.944 141.877 29.848 142.109 29.784C142.341 29.72 142.577 29.688 142.817 29.688C143.177 29.688 143.481 29.732 143.729 29.82C143.985 29.908 144.193 30.024 144.353 30.168C144.513 30.312 144.637 30.476 144.725 30.66C144.821 30.836 144.889 31.016 144.929 31.2C144.969 31.384 144.993 31.564 145.001 31.74C145.009 31.908 145.013 32.056 145.013 32.184V36H144.557V32.1C144.557 31.948 144.545 31.756 144.521 31.524C144.497 31.292 144.425 31.072 144.305 30.864C144.193 30.648 144.017 30.464 143.777 30.312C143.545 30.16 143.221 30.084 142.805 30.084C142.453 30.084 142.141 30.148 141.869 30.276C141.597 30.404 141.365 30.584 141.173 30.816C140.981 31.04 140.833 31.312 140.729 31.632C140.633 31.944 140.585 32.288 140.585 32.664V36H140.129V29.832ZM153.252 29.832V35.676C153.252 36.02 153.212 36.352 153.132 36.672C153.052 37 152.912 37.288 152.712 37.536C152.52 37.784 152.252 37.98 151.908 38.124C151.564 38.276 151.128 38.352 150.6 38.352C150.272 38.352 149.964 38.316 149.676 38.244C149.388 38.18 149.136 38.072 148.92 37.92C148.704 37.776 148.528 37.58 148.392 37.332C148.264 37.092 148.192 36.792 148.176 36.432H148.632C148.656 36.704 148.724 36.936 148.836 37.128C148.948 37.32 149.092 37.476 149.268 37.596C149.452 37.724 149.656 37.816 149.88 37.872C150.104 37.928 150.344 37.956 150.6 37.956C151.024 37.956 151.376 37.892 151.656 37.764C151.944 37.636 152.172 37.468 152.34 37.26C152.508 37.06 152.624 36.828 152.688 36.564C152.76 36.308 152.796 36.048 152.796 35.784V34.368H152.772C152.556 34.824 152.26 35.172 151.884 35.412C151.516 35.652 151.068 35.772 150.54 35.772C150.084 35.772 149.688 35.696 149.352 35.544C149.024 35.384 148.748 35.168 148.524 34.896C148.308 34.616 148.144 34.292 148.032 33.924C147.928 33.556 147.876 33.156 147.876 32.724C147.876 32.316 147.932 31.928 148.044 31.56C148.164 31.192 148.336 30.872 148.56 30.6C148.784 30.32 149.06 30.1 149.388 29.94C149.724 29.772 150.108 29.688 150.54 29.688C151.028 29.688 151.476 29.812 151.884 30.06C152.3 30.308 152.596 30.66 152.772 31.116H152.796V29.832H153.252ZM150.54 30.084C150.164 30.084 149.836 30.16 149.556 30.312C149.284 30.464 149.056 30.664 148.872 30.912C148.696 31.16 148.56 31.444 148.464 31.764C148.376 32.076 148.332 32.396 148.332 32.724C148.332 33.084 148.376 33.428 148.464 33.756C148.56 34.076 148.7 34.356 148.884 34.596C149.076 34.836 149.308 35.028 149.58 35.172C149.86 35.308 150.18 35.376 150.54 35.376C150.916 35.376 151.244 35.304 151.524 35.16C151.804 35.016 152.036 34.82 152.22 34.572C152.412 34.324 152.552 34.044 152.64 33.732C152.736 33.412 152.784 33.076 152.784 32.724C152.784 32.38 152.736 32.048 152.64 31.728C152.552 31.408 152.412 31.128 152.22 30.888C152.036 30.64 151.804 30.444 151.524 30.3C151.244 30.156 150.916 30.084 150.54 30.084ZM156.505 28.668V27.432H156.961V28.668H156.505ZM156.505 36V29.832H156.961V36H156.505ZM160.213 29.832H160.669V31.152H160.693C160.773 30.92 160.885 30.716 161.029 30.54C161.181 30.356 161.353 30.2 161.545 30.072C161.745 29.944 161.961 29.848 162.193 29.784C162.425 29.72 162.661 29.688 162.901 29.688C163.261 29.688 163.565 29.732 163.813 29.82C164.069 29.908 164.277 30.024 164.437 30.168C164.597 30.312 164.721 30.476 164.809 30.66C164.905 30.836 164.973 31.016 165.013 31.2C165.053 31.384 165.077 31.564 165.085 31.74C165.093 31.908 165.097 32.056 165.097 32.184V36H164.641V32.1C164.641 31.948 164.629 31.756 164.605 31.524C164.581 31.292 164.509 31.072 164.389 30.864C164.277 30.648 164.101 30.464 163.861 30.312C163.629 30.16 163.305 30.084 162.889 30.084C162.537 30.084 162.225 30.148 161.953 30.276C161.681 30.404 161.449 30.584 161.257 30.816C161.065 31.04 160.917 31.312 160.813 31.632C160.717 31.944 160.669 32.288 160.669 32.664V36H160.213V29.832ZM168.415 32.976V33.048C168.415 33.408 168.463 33.752 168.559 34.08C168.655 34.408 168.795 34.696 168.979 34.944C169.171 35.192 169.407 35.388 169.687 35.532C169.975 35.676 170.307 35.748 170.683 35.748C171.299 35.748 171.787 35.588 172.147 35.268C172.507 34.94 172.755 34.488 172.891 33.912H173.347C173.211 34.632 172.915 35.184 172.459 35.568C172.011 35.952 171.415 36.144 170.671 36.144C170.215 36.144 169.815 36.064 169.471 35.904C169.135 35.736 168.851 35.512 168.619 35.232C168.395 34.944 168.227 34.608 168.115 34.224C168.003 33.832 167.947 33.412 167.947 32.964C167.947 32.532 168.003 32.12 168.115 31.728C168.235 31.328 168.411 30.98 168.643 30.684C168.875 30.38 169.163 30.14 169.507 29.964C169.859 29.78 170.271 29.688 170.743 29.688C171.175 29.688 171.555 29.768 171.883 29.928C172.219 30.088 172.499 30.308 172.723 30.588C172.947 30.86 173.115 31.18 173.227 31.548C173.347 31.908 173.407 32.296 173.407 32.712C173.407 32.752 173.403 32.8 173.395 32.856C173.395 32.904 173.395 32.944 173.395 32.976H168.415ZM172.939 32.58C172.923 32.244 172.867 31.928 172.771 31.632C172.675 31.328 172.531 31.064 172.339 30.84C172.155 30.608 171.927 30.424 171.655 30.288C171.391 30.152 171.087 30.084 170.743 30.084C170.375 30.084 170.051 30.156 169.771 30.3C169.491 30.436 169.255 30.62 169.063 30.852C168.871 31.076 168.723 31.34 168.619 31.644C168.515 31.948 168.451 32.26 168.427 32.58H172.939ZM176.438 32.976V33.048C176.438 33.408 176.486 33.752 176.582 34.08C176.678 34.408 176.818 34.696 177.002 34.944C177.194 35.192 177.43 35.388 177.71 35.532C177.998 35.676 178.33 35.748 178.706 35.748C179.322 35.748 179.81 35.588 180.17 35.268C180.53 34.94 180.778 34.488 180.914 33.912H181.37C181.234 34.632 180.938 35.184 180.482 35.568C180.034 35.952 179.438 36.144 178.694 36.144C178.238 36.144 177.838 36.064 177.494 35.904C177.158 35.736 176.874 35.512 176.642 35.232C176.418 34.944 176.25 34.608 176.138 34.224C176.026 33.832 175.97 33.412 175.97 32.964C175.97 32.532 176.026 32.12 176.138 31.728C176.258 31.328 176.434 30.98 176.666 30.684C176.898 30.38 177.186 30.14 177.53 29.964C177.882 29.78 178.294 29.688 178.766 29.688C179.198 29.688 179.578 29.768 179.906 29.928C180.242 30.088 180.522 30.308 180.746 30.588C180.97 30.86 181.138 31.18 181.25 31.548C181.37 31.908 181.43 32.296 181.43 32.712C181.43 32.752 181.426 32.8 181.418 32.856C181.418 32.904 181.418 32.944 181.418 32.976H176.438ZM180.962 32.58C180.946 32.244 180.89 31.928 180.794 31.632C180.698 31.328 180.554 31.064 180.362 30.84C180.178 30.608 179.95 30.424 179.678 30.288C179.414 30.152 179.11 30.084 178.766 30.084C178.398 30.084 178.074 30.156 177.794 30.3C177.514 30.436 177.278 30.62 177.086 30.852C176.894 31.076 176.746 31.34 176.642 31.644C176.538 31.948 176.474 32.26 176.45 32.58H180.962ZM184.737 31.2H184.773C184.829 31 184.929 30.812 185.073 30.636C185.225 30.46 185.405 30.308 185.613 30.18C185.829 30.052 186.065 29.956 186.321 29.892C186.585 29.82 186.857 29.788 187.137 29.796V30.252C186.897 30.22 186.621 30.244 186.309 30.324C186.005 30.404 185.713 30.58 185.433 30.852C185.321 30.972 185.221 31.088 185.133 31.2C185.053 31.312 184.985 31.436 184.929 31.572C184.873 31.708 184.829 31.86 184.797 32.028C184.765 32.196 184.745 32.396 184.737 32.628V36H184.281V29.832H184.737V31.2Z" fill="black"/>
<path d="M45.6655 6.51074V16.375H48.5776C50.0679 16.375 51.1069 15.6401 51.6948 14.1704C52.0161 13.3638 52.1768 12.4033 52.1768 11.2891C52.1768 9.75098 51.9341 8.57178 51.4487 7.75146C50.9702 6.92432 50.0132 6.51074 48.5776 6.51074H45.6655ZM49.1108 3.88574C50.0474 3.89941 50.8267 4.00879 51.4487 4.21387C52.5083 4.5625 53.3662 5.20166 54.0225 6.13135C54.5488 6.8833 54.9077 7.69678 55.0991 8.57178C55.2905 9.44678 55.3862 10.2808 55.3862 11.0737C55.3862 13.0835 54.9829 14.7856 54.1763 16.1802C53.0825 18.0601 51.394 19 49.1108 19H42.5996V3.88574H49.1108ZM57.9907 21.1431L58.3599 21.1636C58.647 21.1772 58.9204 21.167 59.1802 21.1328C59.4399 21.0986 59.6587 21.02 59.8364 20.897C60.0073 20.7808 60.1646 20.5381 60.3081 20.1689C60.4585 19.7998 60.52 19.5742 60.4927 19.4922L56.3911 7.82324H59.6416L62.082 16.0674L64.3892 7.82324H67.4961L63.6611 18.8154C62.9229 20.9346 62.3384 22.2471 61.9077 22.7529C61.4771 23.2656 60.6157 23.522 59.3237 23.522C59.064 23.522 58.8555 23.5186 58.6982 23.5117C58.541 23.5117 58.3052 23.5015 57.9907 23.481V21.1431ZM72.2129 19H69.2905V3.88574H72.2129V19ZM81.2363 13.5654C81.0518 13.6816 80.8638 13.7773 80.6724 13.8525C80.4878 13.9209 80.2314 13.9858 79.9033 14.0474L79.2471 14.1704C78.6318 14.2798 78.1909 14.4131 77.9243 14.5703C77.4731 14.8369 77.2476 15.2505 77.2476 15.811C77.2476 16.3101 77.3843 16.6724 77.6577 16.8979C77.938 17.1167 78.2764 17.2261 78.6729 17.2261C79.3018 17.2261 79.8794 17.0415 80.4058 16.6724C80.939 16.3032 81.2158 15.6299 81.2363 14.6523V13.5654ZM79.4624 12.2017C80.0024 12.1333 80.3887 12.0479 80.6211 11.9453C81.0381 11.7676 81.2466 11.4907 81.2466 11.1147C81.2466 10.6567 81.0859 10.3423 80.7646 10.1714C80.4502 9.99365 79.9854 9.90479 79.3701 9.90479C78.6797 9.90479 78.1909 10.0757 77.9038 10.4175C77.6987 10.6704 77.562 11.0122 77.4937 11.4429H74.6738C74.7354 10.4653 75.0088 9.66211 75.4941 9.0332C76.2666 8.04883 77.5928 7.55664 79.4727 7.55664C80.6963 7.55664 81.7832 7.79932 82.7334 8.28467C83.6836 8.77002 84.1587 9.68604 84.1587 11.0327V16.1597C84.1587 16.5151 84.1655 16.9458 84.1792 17.4517C84.1997 17.8345 84.2578 18.0942 84.3535 18.231C84.4492 18.3677 84.5928 18.4805 84.7842 18.5693V19H81.6055C81.5166 18.7744 81.4551 18.5625 81.4209 18.3643C81.3867 18.166 81.3594 17.9404 81.3389 17.6875C80.9355 18.125 80.4707 18.4976 79.9443 18.8052C79.3154 19.1675 78.6045 19.3486 77.8115 19.3486C76.7998 19.3486 75.9624 19.0615 75.2993 18.4873C74.6431 17.9062 74.3149 17.0859 74.3149 16.0264C74.3149 14.6523 74.8447 13.6577 75.9043 13.0425C76.4854 12.7075 77.3398 12.4683 78.4678 12.3247L79.4624 12.2017ZM92.9565 7.55664C94.1118 7.55664 95.0552 7.86084 95.7866 8.46924C96.5249 9.0708 96.894 10.0723 96.894 11.4736V19H93.8999V12.2017C93.8999 11.6138 93.8213 11.1626 93.6641 10.8481C93.377 10.2739 92.8301 9.98682 92.0234 9.98682C91.0322 9.98682 90.3521 10.4072 89.9829 11.248C89.7915 11.6924 89.6958 12.2598 89.6958 12.9502V19H86.7837V7.84375H89.6035V9.47412C89.9795 8.8999 90.335 8.48633 90.6699 8.2334C91.2715 7.78223 92.0337 7.55664 92.9565 7.55664ZM107.743 3.88574L109.742 12.54L110.173 14.9497L110.614 12.5913L112.316 3.88574H115.648L117.443 12.54L117.904 14.9497L118.366 12.6323L120.386 3.88574H123.595L119.34 19H116.325L114.5 10.1611L113.967 7.23877L113.434 10.1611L111.608 19H108.676L104.39 3.88574H107.743ZM129.922 16.939C130.776 16.939 131.433 16.6348 131.891 16.0264C132.349 15.418 132.578 14.5532 132.578 13.4321C132.578 12.311 132.349 11.4497 131.891 10.8481C131.433 10.2397 130.776 9.93555 129.922 9.93555C129.067 9.93555 128.408 10.2397 127.943 10.8481C127.485 11.4497 127.256 12.311 127.256 13.4321C127.256 14.5532 127.485 15.418 127.943 16.0264C128.408 16.6348 129.067 16.939 129.922 16.939ZM135.644 13.4321C135.644 15.0728 135.172 16.4775 134.229 17.6465C133.285 18.8086 131.853 19.3896 129.932 19.3896C128.011 19.3896 126.579 18.8086 125.636 17.6465C124.692 16.4775 124.221 15.0728 124.221 13.4321C124.221 11.8188 124.692 10.4209 125.636 9.23828C126.579 8.05566 128.011 7.46436 129.932 7.46436C131.853 7.46436 133.285 8.05566 134.229 9.23828C135.172 10.4209 135.644 11.8188 135.644 13.4321ZM142.76 16.939C143.614 16.939 144.271 16.6348 144.729 16.0264C145.187 15.418 145.416 14.5532 145.416 13.4321C145.416 12.311 145.187 11.4497 144.729 10.8481C144.271 10.2397 143.614 9.93555 142.76 9.93555C141.905 9.93555 141.246 10.2397 140.781 10.8481C140.323 11.4497 140.094 12.311 140.094 13.4321C140.094 14.5532 140.323 15.418 140.781 16.0264C141.246 16.6348 141.905 16.939 142.76 16.939ZM148.481 13.4321C148.481 15.0728 148.01 16.4775 147.066 17.6465C146.123 18.8086 144.691 19.3896 142.77 19.3896C140.849 19.3896 139.417 18.8086 138.474 17.6465C137.53 16.4775 137.059 15.0728 137.059 13.4321C137.059 11.8188 137.53 10.4209 138.474 9.23828C139.417 8.05566 140.849 7.46436 142.77 7.46436C144.691 7.46436 146.123 8.05566 147.066 9.23828C148.01 10.4209 148.481 11.8188 148.481 13.4321ZM149.435 10.0073V7.92578H150.994V4.80859H153.885V7.92578H155.7V10.0073H153.885V15.9136C153.885 16.3716 153.943 16.6587 154.06 16.7749C154.176 16.8843 154.531 16.939 155.126 16.939C155.215 16.939 155.307 16.939 155.403 16.939C155.505 16.9321 155.604 16.9253 155.7 16.9185V19.1025L154.316 19.1538C152.935 19.2017 151.992 18.9624 151.486 18.436C151.158 18.1011 150.994 17.585 150.994 16.8877V10.0073H149.435ZM156.428 10.0073V7.92578H157.987V4.80859H160.878V7.92578H162.693V10.0073H160.878V15.9136C160.878 16.3716 160.937 16.6587 161.053 16.7749C161.169 16.8843 161.524 16.939 162.119 16.939C162.208 16.939 162.3 16.939 162.396 16.939C162.499 16.9321 162.598 16.9253 162.693 16.9185V19.1025L161.309 19.1538C159.928 19.2017 158.985 18.9624 158.479 18.436C158.151 18.1011 157.987 17.585 157.987 16.8877V10.0073H156.428ZM169.584 16.939C170.438 16.939 171.095 16.6348 171.553 16.0264C172.011 15.418 172.24 14.5532 172.24 13.4321C172.24 12.311 172.011 11.4497 171.553 10.8481C171.095 10.2397 170.438 9.93555 169.584 9.93555C168.729 9.93555 168.07 10.2397 167.605 10.8481C167.147 11.4497 166.918 12.311 166.918 13.4321C166.918 14.5532 167.147 15.418 167.605 16.0264C168.07 16.6348 168.729 16.939 169.584 16.939ZM175.306 13.4321C175.306 15.0728 174.834 16.4775 173.891 17.6465C172.947 18.8086 171.515 19.3896 169.594 19.3896C167.673 19.3896 166.241 18.8086 165.298 17.6465C164.354 16.4775 163.883 15.0728 163.883 13.4321C163.883 11.8188 164.354 10.4209 165.298 9.23828C166.241 8.05566 167.673 7.46436 169.594 7.46436C171.515 7.46436 172.947 8.05566 173.891 9.23828C174.834 10.4209 175.306 11.8188 175.306 13.4321ZM183.601 7.55664C184.756 7.55664 185.7 7.86084 186.431 8.46924C187.169 9.0708 187.539 10.0723 187.539 11.4736V19H184.544V12.2017C184.544 11.6138 184.466 11.1626 184.309 10.8481C184.021 10.2739 183.475 9.98682 182.668 9.98682C181.677 9.98682 180.997 10.4072 180.627 11.248C180.436 11.6924 180.34 12.2598 180.34 12.9502V19H177.428V7.84375H180.248V9.47412C180.624 8.8999 180.979 8.48633 181.314 8.2334C181.916 7.78223 182.678 7.55664 183.601 7.55664Z" fill="#2A2A2A"/>
<rect y="3" width="7" height="33" fill="#2B2B2B"/>
<rect x="7" y="30" width="6" height="6" fill="#2B2B2B"/>
<rect x="13" y="19" width="6" height="17" fill="#2B2B2B"/>
<rect width="7" height="33" transform="matrix(-1 0 0 1 32 3)" fill="#2B2B2B"/>
<rect width="6" height="6" transform="matrix(-1 0 0 1 25 30)" fill="#2B2B2B"/>
<rect width="6" height="20" transform="matrix(-1 0 0 1 19 16)" fill="#2B2B2B"/>
</svg>
